{"title":"Android Cop 2014 BRRip X264 AAC-KSRG-3x","uid":9555205,"size":393152463,"categoryP":"video","categoryS":"movies","magnet":"?xt=urn:btih:7c10d1966b86fc99e9ee72880c9b1f510d96801b&amp;dn=+%09Android+Cop+2014+BRRip+X264+AAC-KSRG-3x&amp;tr=udp%3A%2F%2Ftracker.openbittorrent.com%3A80&amp;tr=udp%3A%2F%2Fopen.demonii.com%3A1337&amp;tr=udp%3A%2F%2Ftracker.coppersurfer.tk%3A6969&amp;tr=udp%3A%2F%2Fexodus.desync.com%3A6969","seeders":0,"leechers":1,"uploader":"NewSky005","files":5,"time":1391353269,"description":" &lt;a href=&quot;http://www.imdb.com/title/tt3393070/&quot; rel=&quot;nofollow&quot; target=&quot;_NEW&quot;&gt;http://www.imdb.com/title/tt3393070/&lt;/a&gt;\n\nGeneral\nComplete name : Android Cop 2014 BRRip X264 AAC-KSRG.mp4\nFormat : MPEG-4\nFormat profile : Base Media\nCodec ID : isom\nFile size : 375 MiB\nDuration : 1h 24mn\nOverall bit rate mode : Variable\nOverall bit rate : 623 Kbps\n\nVideo\nID : 1\nFormat : AVC\nFormat/Info : Advanced Video Codec\nFormat profile : &lt;a class=&quot;__cf_email__&quot; href=&quot;/cdn-cgi/l/email-protection&quot; data-cfemail=&quot;b6fbd7dfd8f6fa859886&quot;&gt;[email&amp;#160;protected]&lt;/a&gt;&lt;script cf-hash='f9e31' type=&quot;text/javascript&quot;&gt;\n/* &lt;![CDATA[ */!function(){try{var t=&quot;currentScript&quot;in document?document.currentScript:function(){for(var t=document.getElementsByTagName(&quot;script&quot;),e=t.length;e--;)if(t[e].getAttribute(&quot;cf-hash&quot;))return t[e]}();if(t&amp;&amp;t.previousSibling){var e,r,n,i,c=t.previousSibling,a=c.getAttribute(&quot;data-cfemail&quot;);if(a){for(e=&quot;&quot;,r=parseInt(a.substr(0,2),16),n=2;a.length-n;n+=2)i=parseInt(a.substr(n,2),16)^r,e+=String.fromCharCode(i);e=document.createTextNode(e),c.parentNode.replaceChild(e,c)}}}catch(u){}}();/* ]]&gt; */&lt;/script&gt;\nFormat settings, CABAC : Yes\nFormat settings, ReFrames : 4 frames\nCodec ID : avc1\nCodec ID/Info : Advanced Video Coding\nDuration : 1h 24mn\nBit rate : 591 Kbps\nMaximum bit rate : 5 031 Kbps\nWidth : 720 pixels\nHeight : 400 pixels\nDisplay aspect ratio : 16:9\nFrame rate mode : Constant\nFrame rate : 23.976 fps\nColor space : YUV\nChroma subsampling : 4:2:0\nBit depth : 8 bits\nScan type : Progressive\nBits/(Pixel*Frame) : 0.086\nStream size : 356 MiB (95%)\nWriting library : x264 core 138 r2358 9e941d1\n\nAudio\nID : 2\nFormat : AAC\nFormat/Info : Advanced Audio Codec\nFormat profile : LC\nCodec ID : 40\nDuration : 1h 24mn\nBit rate mode : Variable\nBit rate : 27.6 Kbps\nMaximum bit rate : 50.9 Kbps\nChannel count : 2 channels\nChannel positions : Front: L R\nSampling rate : 48.0 KHz\nCompression mode : Lossy\nStream size : 16.6 MiB (4%)\n","torrent":{"xt":"urn:btih:7c10d1966b86fc99e9ee72880c9b1f510d96801b","amp;dn":"+%09Android+Cop+2014+BRRip+X264+AAC-KSRG-3x","amp;tr":["udp%3A%2F%2Ftracker.openbittorrent.com%3A80","udp%3A%2F%2Fopen.demonii.com%3A1337","udp%3A%2F%2Ftracker.coppersurfer.tk%3A6969","udp%3A%2F%2Fexodus.desync.com%3A6969"],"infoHash":"7c10d1966b86fc99e9ee72880c9b1f510d96801b","infoHashBuffer":{"type":"Buffer","data":[124,16,209,150,107,134,252,153,233,238,114,136,12,155,31,81,13,150,128,27]},"announce":[],"urlList":[]}}